HIERARCHY
ROOT Hips
{
  OFFSET 5.80788e-005 67.184 3.4734
  CHANNELS 6 Xposition Yposition Zposition Zrotation Xrotation Yrotation
  JOINT Chest
  {
    OFFSET 0 8.7983 -4.7612
    CHANNELS 6 Xposition Yposition Zposition Zrotation Xrotation Yrotation
    JOINT Chest2
    {
      OFFSET 0 8.0291 0.4195
      CHANNELS 6 Xposition Yposition Zposition Zrotation Xrotation Yrotation
      JOINT Chest3
      {
        OFFSET 0 9.9351 -2.2114
        CHANNELS 6 Xposition Yposition Zposition Zrotation Xrotation Yrotation
        JOINT Neck
        {
          OFFSET 0 22.3885 -0.4656
          CHANNELS 6 Xposition Yposition Zposition Zrotation Xrotation Yrotation
          JOINT Head
          {
            OFFSET -0.0001 12.643 3.4389
            CHANNELS 6 Xposition Yposition Zposition Zrotation Xrotation Yrotation
            End Site
            {
              OFFSET 0.0001 17.6655 0.5274
            }
          }
        }
        JOINT LeftCollar
        {
          OFFSET 2.2603 21.606 7.4023
          CHANNELS 6 Xposition Yposition Zposition Zrotation Xrotation Yrotation
          JOINT LeftShoulder
          {
            OFFSET 13.5163 -1.1332 -5.0146
            CHANNELS 6 Xposition Yposition Zposition Zrotation Xrotation Yrotation
            JOINT LeftElbow
            {
              OFFSET -0.0995 -28.05 -0.2431
              CHANNELS 6 Xposition Yposition Zposition Zrotation Xrotation Yrotation
              JOINT LeftWrist
              {
                OFFSET 0.0679 -23.3996 -0.1402
                CHANNELS 6 Xposition Yposition Zposition Zrotation Xrotation Yrotation
                JOINT LeftFinger1
                {
                  OFFSET 0.7932 -9.069 2.5189
                  CHANNELS 6 Xposition Yposition Zposition Zrotation Xrotation Yrotation
                  JOINT LeftFinger11
                  {
                    OFFSET -0.8272 -3.3923 0.5977
                    CHANNELS 6 Xposition Yposition Zposition Zrotation Xrotation Yrotation
                    JOINT LeftFinger12
                    {
                      OFFSET -0.5649 -2.3158 0.4082
                      CHANNELS 6 Xposition Yposition Zposition Zrotation Xrotation Yrotation
                      End Site
                      {
                        OFFSET -0.4919 -1.6479 0.2673
                      }
                    }
                  }
                }
                JOINT LeftFinger2
                {
                  OFFSET 0.9159 -9.2044 0.2193
                  CHANNELS 6 Xposition Yposition Zposition Zrotation Xrotation Yrotation
                  JOINT LeftFinger21
                  {
                    OFFSET 0.0117 -4.1944 -0.0248
                    CHANNELS 6 Xposition Yposition Zposition Zrotation Xrotation Yrotation
                    JOINT LeftFinger22
                    {
                      OFFSET 0.0071 -2.3249 -0.0142
                      CHANNELS 6 Xposition Yposition Zposition Zrotation Xrotation Yrotation
                      End Site
                      {
                        OFFSET -0.1475 -2.0882 0.0028
                      }
                    }
                  }
                }
                JOINT LeftFinger3
                {
                  OFFSET 0.6113 -8.7231 -2.0637
                  CHANNELS 6 Xposition Yposition Zposition Zrotation Xrotation Yrotation
                  JOINT LeftFinger31
                  {
                    OFFSET -0.1927 -3.8059 -0.2383
                    CHANNELS 6 Xposition Yposition Zposition Zrotation Xrotation Yrotation
                    JOINT LeftFinger32
                    {
                      OFFSET -0.1091 -2.1688 -0.1362
                      CHANNELS 6 Xposition Yposition Zposition Zrotation Xrotation Yrotation
                      End Site
                      {
                        OFFSET -0.2358 -1.9176 -0.0906
                      }
                    }
                  }
                }
                JOINT LeftFinger4
                {
                  OFFSET -0.6151 -8.0947 -3.5641
                  CHANNELS 6 Xposition Yposition Zposition Zrotation Xrotation Yrotation
                  JOINT LeftFinger41
                  {
                    OFFSET -0.4882 -2.341 -0.6462
                    CHANNELS 6 Xposition Yposition Zposition Zrotation Xrotation Yrotation
                    JOINT LeftFinger42
                    {
                      OFFSET -0.3575 -1.7167 -0.4742
                      CHANNELS 6 Xposition Yposition Zposition Zrotation Xrotation Yrotation
                      End Site
                      {
                        OFFSET -0.4187 -1.5237 -0.3496
                      }
                    }
                  }
                }
                JOINT LeftFinger0
                {
                  OFFSET -1.42 -1.8761 1.4223
                  CHANNELS 6 Xposition Yposition Zposition Zrotation Xrotation Yrotation
                  JOINT LeftFinger01
                  {
                    OFFSET -1.1471 -3.4929 2.6334
                    CHANNELS 6 Xposition Yposition Zposition Zrotation Xrotation Yrotation
                    JOINT LeftFinger02
                    {
                      OFFSET -0.823 -2.3 1.6571
                      CHANNELS 6 Xposition Yposition Zposition Zrotation Xrotation Yrotation
                      End Site
                      {
                        OFFSET -0.5822 -1.6914 1.1582
                      }
                    }
                  }
                }
              }
            }
          }
        }
        JOINT RightCollar
        {
          OFFSET -2.2603 21.606 7.4023
          CHANNELS 6 Xposition Yposition Zposition Zrotation Xrotation Yrotation
          JOINT RightShoulder
          {
            OFFSET -13.5187 -1.1334 -5.0155
            CHANNELS 6 Xposition Yposition Zposition Zrotation Xrotation Yrotation
            JOINT RightElbow
            {
              OFFSET 0.0994 -28.0499 -0.2431
              CHANNELS 6 Xposition Yposition Zposition Zrotation Xrotation Yrotation
              JOINT RightWrist
              {
                OFFSET -0.0679 -23.3996 -0.1402
                CHANNELS 6 Xposition Yposition Zposition Zrotation Xrotation Yrotation
                JOINT RightFinger1
                {
                  OFFSET -0.7932 -9.0691 2.5189
                  CHANNELS 6 Xposition Yposition Zposition Zrotation Xrotation Yrotation
                  JOINT RightFinger11
                  {
                    OFFSET 0.8272 -3.3923 0.5977
                    CHANNELS 6 Xposition Yposition Zposition Zrotation Xrotation Yrotation
                    JOINT RightFinger12
                    {
                      OFFSET 0.565 -2.3158 0.4082
                      CHANNELS 6 Xposition Yposition Zposition Zrotation Xrotation Yrotation
                      End Site
                      {
                        OFFSET 0.4919 -1.6479 0.2673
                      }
                    }
                  }
                }
                JOINT RightFinger2
                {
                  OFFSET -0.916 -9.2044 0.2193
                  CHANNELS 6 Xposition Yposition Zposition Zrotation Xrotation Yrotation
                  JOINT RightFinger21
                  {
                    OFFSET -0.0117 -4.1944 -0.0248
                    CHANNELS 6 Xposition Yposition Zposition Zrotation Xrotation Yrotation
                    JOINT RightFinger22
                    {
                      OFFSET -0.0071 -2.3249 -0.0142
                      CHANNELS 6 Xposition Yposition Zposition Zrotation Xrotation Yrotation
                      End Site
                      {
                        OFFSET 0.1475 -2.0882 0.0028
                      }
                    }
                  }
                }
                JOINT RightFinger3
                {
                  OFFSET -0.6113 -8.7231 -2.0637
                  CHANNELS 6 Xposition Yposition Zposition Zrotation Xrotation Yrotation
                  JOINT RightFinger31
                  {
                    OFFSET 0.1927 -3.8059 -0.2383
                    CHANNELS 6 Xposition Yposition Zposition Zrotation Xrotation Yrotation
                    JOINT RightFinger32
                    {
                      OFFSET 0.1091 -2.1688 -0.1362
                      CHANNELS 6 Xposition Yposition Zposition Zrotation Xrotation Yrotation
                      End Site
                      {
                        OFFSET 0.2358 -1.9176 -0.0906
                      }
                    }
                  }
                }
                JOINT RightFinger4
                {
                  OFFSET 0.6151 -8.0947 -3.564
                  CHANNELS 6 Xposition Yposition Zposition Zrotation Xrotation Yrotation
                  JOINT RightFinger41
                  {
                    OFFSET 0.4882 -2.341 -0.6462
                    CHANNELS 6 Xposition Yposition Zposition Zrotation Xrotation Yrotation
                    JOINT RightFinger42
                    {
                      OFFSET 0.3574 -1.7166 -0.4742
                      CHANNELS 6 Xposition Yposition Zposition Zrotation Xrotation Yrotation
                      End Site
                      {
                        OFFSET 0.4187 -1.5237 -0.3496
                      }
                    }
                  }
                }
                JOINT RightFinger0
                {
                  OFFSET 1.4199 -1.8761 1.4221
                  CHANNELS 6 Xposition Yposition Zposition Zrotation Xrotation Yrotation
                  JOINT RightFinger01
                  {
                    OFFSET 1.1472 -3.4929 2.6336
                    CHANNELS 6 Xposition Yposition Zposition Zrotation Xrotation Yrotation
                    JOINT RightFinger02
                    {
                      OFFSET 0.8229 -2.3 1.6571
                      CHANNELS 6 Xposition Yposition Zposition Zrotation Xrotation Yrotation
                      End Site
                      {
                        OFFSET 0.5822 -1.6914 1.1582
                      }
                    }
                  }
                }
              }
            }
          }
        }
      }
    }
  }
  JOINT RightHip
  {
    OFFSET -9.412 3.9771 -0.7758
    CHANNELS 6 Xposition Yposition Zposition Zrotation Xrotation Yrotation
    JOINT RightKnee
    {
      OFFSET -0.7531 -40.938 0
      CHANNELS 6 Xposition Yposition Zposition Zrotation Xrotation Yrotation
      JOINT RightAnkle
      {
        OFFSET 0 -40.1986 0
        CHANNELS 6 Xposition Yposition Zposition Zrotation Xrotation Yrotation
        JOINT RightToe
        {
          OFFSET 0 -4.4182 9.239
          CHANNELS 6 Xposition Yposition Zposition Zrotation Xrotation Yrotation
          End Site
          {
            OFFSET 0 0 6.1981
          }
        }
      }
    }
  }
  JOINT LeftHip
  {
    OFFSET 9.4119 3.9773 -0.7758
    CHANNELS 6 Xposition Yposition Zposition Zrotation Xrotation Yrotation
    JOINT LeftKnee
    {
      OFFSET 0.7532 -40.9383 0
      CHANNELS 6 Xposition Yposition Zposition Zrotation Xrotation Yrotation
      JOINT LeftAnkle
      {
        OFFSET 0 -40.1986 0
        CHANNELS 6 Xposition Yposition Zposition Zrotation Xrotation Yrotation
        JOINT LeftToe
        {
          OFFSET 0 -4.4182 9.239
          CHANNELS 6 Xposition Yposition Zposition Zrotation Xrotation Yrotation
          End Site
          {
            OFFSET 0 0 6.1981
          }
        }
      }
    }
  }
}
MOTION
Frames:	4
Frame Time:	0.0333333
-2.67001 30.6982 -24.1158 3.97062e-008 -17.15 1.34655e-007 4.44089e-016 8.7983 -4.7612 2.84134 12.3591 0.121749 -3.33067e-016 8.0291 0.4195 5.86803 24.7084 -0.416686 0 9.9351 -2.2114 5.86803 24.7084 -0.416684 0 22.3885 -0.4656 -1.39443 0.904453 7.1542 -0.0001 12.643 3.4389 5.63648 -24.3282 5.59794 2.2603 21.606 7.4023 12.988 14.2584 -59.7259 13.5163 -1.1332 -5.0146 58.3787 -1.47801 67.8474 -0.0995 -28.05 -0.2431 -166.881 -79.075 161.807 0.0679 -23.3996 -0.1402 5.66549 -33.9746 28.4737 0.7932 -9.069 2.5189 -3.18055e-015 -1.59028e-014 -0 -0.8272 -3.3923 0.5977 9.46314e-006 -1.08978e-005 -1.93283e-006 -0.5649 -2.3158 0.4082 3.18055e-015 0 3.18055e-015 0.9159 -9.2044 0.2193 -3.18055e-015 -1.59028e-014 -0 0.0117 -4.1944 -0.0248 -0.0127737 0.00231147 9.43454e-005 0.0071 -2.3249 -0.0142 -1.4489e-005 2.93612e-006 -1.16877e-005 0.6113 -8.7231 -2.0637 -3.18055e-015 -1.59028e-014 -0 -0.1927 -3.8059 -0.2383 -0.0160215 0.00297419 0.000851834 -0.1091 -2.1688 -0.1362 1.87462e-005 1.25456e-007 8.56152e-006 -0.6151 -8.0947 -3.5641 -3.18055e-015 -1.59028e-014 -0 -0.4882 -2.341 -0.6462 -0.0126254 0.00312516 0.00284148 -0.3575 -1.7167 -0.4742 3.18055e-015 0 -0 -1.42 -1.8761 1.4223 -3.18055e-015 -1.59028e-014 -0 -1.1471 -3.4929 2.6334 9.46314e-006 -1.08978e-005 -1.93283e-006 -0.823 -2.3 1.6571 3.18055e-015 0 3.18055e-015 -2.2603 21.606 7.4023 -10.7331 4.19138 42.1911 -13.5187 -1.1334 -5.0155 -55.9445 8.59859 -65.9422 0.0994 -28.0499 -0.2431 167.985 -68.5556 -172.936 -0.0679 -23.3996 -0.1402 -3.99013 8.52442 3.95783 -0.7932 -9.0691 2.5189 0 0 -2.78299e-015 0.8272 -3.3923 0.5977 -2.20855e-006 -3.13823e-006 -1.20685e-005 0.565 -2.3158 0.4082 -1.01204e-006 -8.40518e-006 6.2501e-006 -0.916 -9.2044 0.2193 0 0 -2.78299e-015 -0.0117 -4.1944 -0.0248 0.0129057 0.00228997 -8.49552e-005 -0.0071 -2.3249 -0.0142 6.18143e-006 9.69644e-006 -2.13746e-006 -0.6113 -8.7231 -2.0637 0 0 -2.78299e-015 0.1927 -3.8059 -0.2383 0.0164068 0.00304749 -0.000881242 0.1091 -2.1688 -0.1362 -7.95139e-016 -1.59028e-015 1.78906e-015 0.6151 -8.0947 -3.564 0 0 -2.78299e-015 0.4882 -2.341 -0.6462 0.0145365 0.00366245 -0.00326867 0.3574 -1.7166 -0.4742 4.38685e-006 -8.99067e-006 1.27583e-005 1.4199 -1.8761 1.4221 0 0 -2.78299e-015 1.1472 -3.4929 2.6336 -2.20855e-006 -3.13823e-006 -1.20685e-005 0.8229 -2.3 1.6571 -1.01204e-006 -8.40518e-006 6.2501e-006 -9.412 3.9771 -0.7758 -13.3431 2.14611 -8.68562 -0.7531 -40.938 0 -158.04 76.4731 161.565 3.55271e-015 -40.1986 -8.88178e-016 -18.7043 49.2296 -2.80299 0 -4.4182 9.239 -1.92846e-006 4.73786e-006 -4.90275e-007 9.4119 3.9773 -0.7758 12.3011 2.80171 8.70144 0.7532 -40.9383 0 158.487 76.5885 -161.951 0 -40.1986 8.88179e-016 18.9122 50.8388 3.3782 -1.77636e-015 -4.4182 9.239 -5.77688e-007 4.07324e-006 5.08547e-006 
-2.67001 30.6947 -24.2872 -7.75888e-007 -17.1079 -4.98567e-007 0 8.7983 -4.7612 2.99214 12.6224 0.120399 0 8.0291 0.4195 6.19109 25.233 -0.472413 0 9.9351 -2.2114 6.19107 25.233 -0.47241 0 22.3885 -0.4656 -1.51889 1.07342 7.59365 -0.0001 12.643 3.4389 5.63083 -24.1699 5.61854 2.2603 21.606 7.4023 13.0717 13.5949 -59.0042 13.5163 -1.1332 -5.0146 58.3786 -1.47794 67.8474 -0.0995 -28.05 -0.2431 -167.639 -78.0828 161.072 0.0679 -23.3996 -0.1402 6.07041 -33.6783 28.8066 0.7932 -9.069 2.5189 -0 0 6.36111e-015 -0.8272 -3.3923 0.5977 6.36111e-015 -9.54166e-015 -3.18055e-015 -0.5649 -2.3158 0.4082 9.54166e-015 -3.18055e-015 -9.54166e-015 0.9159 -9.2044 0.2193 -0 0 6.36111e-015 0.0117 -4.1944 -0.0248 -0.0128673 0.00233636 8.70086e-005 0.0071 -2.3249 -0.0142 -6.36111e-015 -6.36111e-015 1.27222e-014 0.6113 -8.7231 -2.0637 -0 0 6.36111e-015 -0.1927 -3.8059 -0.2383 -0.0160903 0.00300591 0.00085751 -0.1091 -2.1688 -0.1362 -1.76556e-031 3.18055e-015 3.18055e-015 -0.6151 -8.0947 -3.5641 -0 0 6.36111e-015 -0.4882 -2.341 -0.6462 -0.0126049 0.00312854 0.00282806 -0.3575 -1.7167 -0.4742 5.51382e-007 2.5626e-006 -3.29313e-006 -1.42 -1.8761 1.4223 -0 0 6.36111e-015 -1.1471 -3.4929 2.6334 6.36111e-015 -9.54166e-015 -3.18055e-015 -0.823 -2.3 1.6571 9.54166e-015 -3.18055e-015 -9.54166e-015 -2.2603 21.606 7.4023 -11.2554 3.01821 41.1616 -13.5187 -1.1334 -5.0155 -55.6817 9.21829 -65.9063 0.0994 -28.0499 -0.2431 168.55 -66.9337 -173.111 -0.0679 -23.3996 -0.1402 -3.68221 8.79715 3.41506 -0.7932 -9.0691 2.5189 -1.67009e-006 -6.02906e-007 3.07362e-007 0.8272 -3.3923 0.5977 -5.01027e-006 1.15057e-006 9.22087e-007 0.565 -2.3158 0.4082 5.12919e-006 2.59079e-007 -6.62993e-006 -0.916 -9.2044 0.2193 -1.67009e-006 -6.02906e-007 3.07362e-007 -0.0117 -4.1944 -0.0248 0.0129543 0.00233273 -8.64629e-005 -0.0071 -2.3249 -0.0142 -2.38542e-015 -1.59028e-015 -0 -0.6113 -8.7231 -2.0637 -1.67009e-006 -6.02906e-007 3.07362e-007 0.1927 -3.8059 -0.2383 0.0163149 0.00303514 -0.000879735 0.1091 -2.1688 -0.1362 -7.28295e-031 -4.77083e-015 -8.74653e-015 0.6151 -8.0947 -3.564 -1.67009e-006 -6.02906e-007 3.07362e-007 0.4882 -2.341 -0.6462 0.0145998 0.00367783 -0.00326695 0.3574 -1.7166 -0.4742 7.25211e-007 4.11959e-006 -4.11984e-006 1.4199 -1.8761 1.4221 -1.67009e-006 -6.02906e-007 3.07362e-007 1.1472 -3.4929 2.6336 -5.01027e-006 1.15057e-006 9.22087e-007 0.8229 -2.3 1.6571 5.12919e-006 2.59079e-007 -6.62993e-006 -9.412 3.9771 -0.7758 -13.3451 2.1638 -8.68191 -0.7531 -40.938 0 -158.039 76.4736 161.565 3.55271e-015 -40.1986 0 -18.7045 49.2299 -2.80281 1.77636e-015 -4.4182 9.239 -1.59028e-015 9.54166e-015 -1.59028e-015 9.4119 3.9773 -0.7758 12.3037 2.8197 8.69888 0.7532 -40.9383 -1.77636e-015 158.485 76.5894 -161.949 0 -40.1986 8.88179e-016 18.9074 50.8361 3.38137 0 -4.4182 9.239 4.49968e-007 -2.79723e-008 1.76728e-006 
-2.67002 30.6911 -24.4586 -2.40956e-006 -17.0657 -3.51863e-007 0 8.7983 -4.7612 3.14123 12.8867 0.11767 4.44089e-016 8.0291 0.4195 6.51233 25.7596 -0.532667 -1.77636e-015 9.9351 -2.2114 6.51232 25.7595 -0.53266 -5.32907e-015 22.3885 -0.4656 -1.64474 1.24154 8.0338 -0.0001 12.643 3.4389 5.62505 -24.0116 5.63913 2.2603 21.606 7.4023 13.1639 12.9324 -58.2835 13.5163 -1.1332 -5.0146 58.3786 -1.47796 67.8474 -0.0995 -28.05 -0.2431 -168.279 -77.0884 160.456 0.0679 -23.3996 -0.1402 6.47212 -33.3799 29.1361 0.7932 -9.069 2.5189 2.94694e-006 1.2015e-006 8.27476e-006 -0.8272 -3.3923 0.5977 6.36111e-015 3.18055e-015 -3.18055e-015 -0.5649 -2.3158 0.4082 -2.94694e-006 -1.2015e-006 -8.27476e-006 0.9159 -9.2044 0.2193 2.94694e-006 1.2015e-006 8.27476e-006 0.0117 -4.1944 -0.0248 -0.0128708 0.00233265 8.08844e-005 0.0071 -2.3249 -0.0142 -9.54166e-015 -6.36111e-015 3.18055e-015 0.6113 -8.7231 -2.0637 2.94694e-006 1.2015e-006 8.27476e-006 -0.1927 -3.8059 -0.2383 -0.0160603 0.00299188 0.000857806 -0.1091 -2.1688 -0.1362 -9.54166e-015 6.36111e-015 -3.18055e-015 -0.6151 -8.0947 -3.5641 2.94694e-006 1.2015e-006 8.27476e-006 -0.4882 -2.341 -0.6462 -0.0126552 0.00313432 0.00284092 -0.3575 -1.7167 -0.4742 3.18055e-015 -3.18055e-015 6.36111e-015 -1.42 -1.8761 1.4223 2.94694e-006 1.2015e-006 8.27476e-006 -1.1471 -3.4929 2.6334 6.36111e-015 3.18055e-015 -3.18055e-015 -0.823 -2.3 1.6571 -2.94694e-006 -1.2015e-006 -8.27476e-006 -2.2603 21.606 7.4023 -11.7994 1.85216 40.1202 -13.5187 -1.1334 -5.0155 -55.4189 9.83775 -65.8732 0.0994 -28.0499 -0.2431 169.087 -65.3158 -173.316 -0.0679 -23.3996 -0.1402 -3.37142 9.06698 2.87039 -0.7932 -9.0691 2.5189 -7.72434e-032 1.59028e-015 2.78299e-015 0.8272 -3.3923 0.5977 7.95139e-016 3.18055e-015 -3.97569e-016 0.565 -2.3158 0.4082 -7.95139e-016 1.59028e-015 3.18055e-015 -0.916 -9.2044 0.2193 -7.72434e-032 1.59028e-015 2.78299e-015 -0.0117 -4.1944 -0.0248 0.0129121 0.00231894 -8.27269e-005 -0.0071 -2.3249 -0.0142 6.62086e-032 -3.18055e-015 1.19271e-015 -0.6113 -8.7231 -2.0637 -7.72434e-032 1.59028e-015 2.78299e-015 0.1927 -3.8059 -0.2383 0.0162869 0.0030366 -0.000873934 0.1091 -2.1688 -0.1362 -1.59028e-015 -4.77083e-015 3.97569e-016 0.6151 -8.0947 -3.564 -7.72434e-032 1.59028e-015 2.78299e-015 0.4882 -2.341 -0.6462 0.0145577 0.00367358 -0.0032498 0.3574 -1.7166 -0.4742 -2.38542e-015 -1.59028e-015 8.15017e-015 1.4199 -1.8761 1.4221 -7.72434e-032 1.59028e-015 2.78299e-015 1.1472 -3.4929 2.6336 7.95139e-016 3.18055e-015 -3.97569e-016 0.8229 -2.3 1.6571 -7.95139e-016 1.59028e-015 3.18055e-015 -9.412 3.9771 -0.7758 -13.3471 2.18153 -8.67822 -0.7531 -40.938 -1.77636e-015 -158.039 76.4742 161.564 0 -40.1986 0 -18.7045 49.2302 -2.80268 1.77636e-015 -4.4182 9.239 -1.29772e-006 4.93428e-006 -1.04794e-006 9.4119 3.9773 -0.7758 12.3064 2.83761 8.69634 0.7532 -40.9383 -3.55271e-015 158.483 76.5904 -161.948 -3.55271e-015 -40.1986 8.88178e-016 18.9026 50.8334 3.38453 1.77636e-015 -4.4182 9.239 -4.29821e-006 -9.66928e-006 -4.04332e-006 
-2.67002 30.6876 -24.6301 -1.88538e-007 -17.0236 6.67876e-007 0 8.7983 -4.7612 3.28858 13.1522 0.113561 -3.33067e-016 8.0291 0.4195 6.83179 26.288 -0.597469 0 9.9351 -2.2114 6.83177 26.2879 -0.59746 1.77636e-015 22.3885 -0.4656 -1.77198 1.40883 8.47465 -0.0001 12.643 3.4389 5.61915 -23.8534 5.65973 2.2603 21.606 7.4023 13.2643 12.2711 -57.5634 13.5163 -1.1332 -5.0146 58.3787 -1.47802 67.8474 -0.0995 -28.05 -0.2431 -168.834 -76.093 159.925 0.0679 -23.3996 -0.1402 6.87066 -33.0794 29.4622 0.7932 -9.069 2.5189 -3.18055e-015 6.36111e-015 6.36111e-015 -0.8272 -3.3923 0.5977 -9.54166e-015 1.90833e-014 6.36111e-015 -0.5649 -2.3158 0.4082 -6.36111e-015 9.54166e-015 9.54166e-015 0.9159 -9.2044 0.2193 -3.18055e-015 6.36111e-015 6.36111e-015 0.0117 -4.1944 -0.0248 -0.0128516 0.00233657 8.83643e-005 0.0071 -2.3249 -0.0142 -6.36111e-015 9.54166e-015 3.18055e-015 0.6113 -8.7231 -2.0637 -3.18055e-015 6.36111e-015 6.36111e-015 -0.1927 -3.8059 -0.2383 -0.0160857 0.00300204 0.000860279 -0.1091 -2.1688 -0.1362 -6.36111e-015 0 -3.18055e-015 -0.6151 -8.0947 -3.5641 -3.18055e-015 6.36111e-015 6.36111e-015 -0.4882 -2.341 -0.6462 -0.0125661 0.00311704 0.00282362 -0.3575 -1.7167 -0.4742 -9.54166e-015 1.27222e-014 -0 -1.42 -1.8761 1.4223 -3.18055e-015 6.36111e-015 6.36111e-015 -1.1471 -3.4929 2.6334 -9.54166e-015 1.90833e-014 6.36111e-015 -0.823 -2.3 1.6571 -6.36111e-015 9.54166e-015 9.54166e-015 -2.2603 21.606 7.4023 -12.3653 0.694246 39.0663 -13.5187 -1.1334 -5.0155 -55.1558 10.4579 -65.8429 0.0994 -28.0499 -0.2431 169.611 -63.7025 -173.538 -0.0679 -23.3996 -0.1402 -3.05781 9.33393 2.32383 -0.7932 -9.0691 2.5189 -2.38542e-015 1.59028e-015 -6.16232e-015 0.8272 -3.3923 0.5977 7.95139e-016 1.59028e-015 -3.97569e-016 0.565 -2.3158 0.4082 3.33161e-006 -3.03765e-006 -6.84961e-007 -0.916 -9.2044 0.2193 -2.38542e-015 1.59028e-015 -6.16232e-015 -0.0117 -4.1944 -0.0248 0.0129935 0.00231736 -9.18123e-005 -0.0071 -2.3249 -0.0142 -1.59028e-015 1.59028e-015 -1.98785e-015 -0.6113 -8.7231 -2.0637 -2.38542e-015 1.59028e-015 -6.16232e-015 0.1927 -3.8059 -0.2383 0.0163444 0.00302836 -0.000878017 0.1091 -2.1688 -0.1362 5.72258e-006 -4.23413e-006 6.10631e-006 0.6151 -8.0947 -3.564 -2.38542e-015 1.59028e-015 -6.16232e-015 0.4882 -2.341 -0.6462 0.0145581 0.0036583 -0.00326001 0.3574 -1.7166 -0.4742 7.95139e-016 -4.77083e-015 -2.98177e-015 1.4199 -1.8761 1.4221 -2.38542e-015 1.59028e-015 -6.16232e-015 1.1472 -3.4929 2.6336 7.95139e-016 1.59028e-015 -3.97569e-016 0.8229 -2.3 1.6571 3.33161e-006 -3.03765e-006 -6.84961e-007 -9.412 3.9771 -0.7758 -13.3491 2.19921 -8.67452 -0.7531 -40.938 0 -158.038 76.4747 161.563 0 -40.1986 8.88179e-016 -18.7047 49.2305 -2.80252 -3.55271e-015 -4.4182 9.239 -3.18055e-015 5.74398e-009 -0 9.4119 3.9773 -0.7758 12.309 2.8556 8.69378 0.7532 -40.9383 -1.77636e-015 158.482 76.5913 -161.946 0 -40.1986 0 18.8978 50.8307 3.38768 -1.77636e-015 -4.4182 9.239 -1.97617e-006 -4.74406e-006 -5.64407e-007 
